# xmcd
#
# Track frame offsets:
#	150
#	12555
#	30791
#	45216
#	59652
#	74255
#	87205
#	104488
#	117786
#	133564
#	146540
#	162830
#	177046
#	190186
#	206759
#	219422
#
# Disc length: 3106
#
# Revision: 2
# Processed by: cddbd v1.5.1PL0 Copyright (c) Steve Scherf et al.
# Submitted via: FreeRIP 2.00 
# Normalized: r1:TDELIM( - )
#
DISCID=d80c2010
DTITLE=Various Artist - COUNTRY CLUB USA
DYEAR=1900
DGENRE=Country
TTITLE0=Joe Diffie - New Way
TTITLE1=Lionel Cartwright - Leap of Faith
TTITLE2=Pam Tillis - Don't tell me what to do
TTITLE3=Rio Diamond - Mirror Mirror
TTITLE4=Marty Stuart - Temted
TTITLE5=Alan Jackson - Don't rock the Jukebox
TTITLE6=Ricky van Shelton - Keep it between the Lines
TTITLE7=Brooks and Dunn - Brand new Man
TTITLE8=Tanja Tucker - Down to my last Teardrop
TTITLE9=Vince Gill - Liza Jane
TTITLE10=Lorrie Morgan - A Picture of me
TTITLE11=Clint Black - Where are you now
TTITLE12=Garth Brooks - I know one
TTITLE13=Trisha Yearwood - Like we never had a broken Heart
TTITLE14=Mark Chesnutt - Your Love is a Miracle
TTITLE15=George Strait - You know be better than that
EXTD=
EXTT0=
EXTT1=
EXTT2=
EXTT3=
EXTT4=
EXTT5=
EXTT6=
EXTT7=
EXTT8=
EXTT9=
EXTT10=
EXTT11=
EXTT12=
EXTT13=
EXTT14=
EXTT15=
PLAYORDER=
